<?xml version="1.0" encoding="UTF-8"?>
<svg width="379px" height="66px" viewBox="0 0 379 66" version="1.1" xmlns="http://www.w3.org/2000/svg" xmlns:xlink="http://www.w3.org/1999/xlink">
    <!-- Generator: Sketch 52.6 (67491) - http://www.bohemiancoding.com/sketch -->
    <title>Group 73</title>
    <desc>Created with Sketch.</desc>
    <defs>
        <polygon id="path-1" points="0.377523377 0.222655357 9.29632857 0.222655357 9.29632857 13.7857143 0.377523377 13.7857143"></polygon>
        <polygon id="path-3" points="0.987368831 0.222655357 9.90617403 0.222655357 9.90617403 13.7857143 0.987368831 13.7857143"></polygon>
        <polygon id="path-5" points="0 66.5357143 378.708367 66.5357143 378.708367 0.856339286 0 0.856339286"></polygon>
    </defs>
    <g id="Page-1" stroke="none" stroke-width="1" fill="none" fill-rule="evenodd">
        <g id="Group-73" transform="translate(0.000000, -1.000000)">
            <polygon id="Fill-1" fill="#0072CE" points="224.371199 35.0539714 229.72642 35.0539714 229.72642 33.4078286 224.371199 33.4078286 224.371199 28.9228286 231.025849 28.9228286 231.025849 27.2175429 222.26455 27.2175429 222.26455 41.3724 231.025849 41.3724 231.035693 39.6671143 224.371199 39.6671143"></polygon>
            <g id="Group-72" transform="translate(0.000000, 0.375927)">
                <path d="M242.286948,30.9816161 L240.524844,30.9816161 C240.327961,30.9816161 240.170454,31.0863482 240.052324,31.2970446 L238.014584,34.3231875 C237.949367,34.4279196 237.896454,34.5289554 237.857078,34.6238304 C237.817701,34.7187054 237.782016,34.8160446 237.748792,34.9146161 L235.37635,31.2576161 C235.323438,31.1652054 235.263143,31.0974375 235.194233,31.0506161 C235.125324,31.0050268 235.015808,30.9816161 234.864454,30.9816161 L233.013753,30.9816161 L236.360766,35.8411875 L232.875935,40.9964732 L234.588818,40.9964732 C234.726636,40.9964732 234.838613,40.9558125 234.923519,40.8732589 C235.008425,40.7907054 235.084717,40.7044554 235.149935,40.6120446 L237.36487,37.3394732 C237.417782,37.2606161 237.46085,37.1743661 237.492844,37.0831875 C237.526068,36.9907768 237.558061,36.8959018 237.591285,36.7973304 L240.003104,40.6120446 C240.056016,40.7044554 240.126156,40.7907054 240.214753,40.8732589 C240.30335,40.9558125 240.422711,40.9964732 240.574065,40.9964732 L242.424766,40.9964732 L238.939935,35.7524732 L242.286948,30.9816161 Z" id="Fill-2" fill="#0072CE"></path>
                <path d="M246.687531,33.7912714 C247.035769,33.33045 247.414769,32.976825 247.824531,32.7267 C248.234294,32.476575 248.719119,32.3521286 249.276544,32.3521286 C249.658006,32.3521286 249.998859,32.4198964 250.300337,32.5542 C250.603044,32.6885036 250.856531,32.8979679 251.063259,33.1850571 C251.269986,33.4696821 251.427493,33.8380929 251.535778,34.287825 C251.644064,34.7387893 251.698207,35.2821643 251.698207,35.9204143 C251.698207,37.1365393 251.457025,38.0606464 250.974661,38.6939679 C250.492298,39.3285214 249.81182,39.6464143 248.931999,39.6464143 C248.479168,39.6464143 248.070635,39.5638607 247.706402,39.3999857 C247.342168,39.2348786 247.002544,38.9465571 246.687531,38.5325571 L246.687531,33.7912714 Z M246.687531,40.0111286 C247.022233,40.3659857 247.403694,40.6419857 247.829454,40.8391286 C248.256444,41.0362714 248.76834,41.1348429 249.365142,41.1348429 C250.034544,41.1348429 250.636269,41.0017714 251.171544,40.7356286 C251.70682,40.4694857 252.159652,40.1023071 252.530038,39.6365571 C252.900424,39.169575 253.185905,38.6188071 253.38648,37.9842536 C253.587054,37.3509321 253.686726,36.6621643 253.686726,35.9204143 C253.686726,35.0924143 253.596898,34.3592893 253.416012,33.7210393 C253.235126,33.0852536 252.981639,32.5480393 252.65309,32.1155571 C252.325772,31.6818429 251.929544,31.3528607 251.466869,31.1298429 C251.004194,30.9055929 250.487376,30.7934679 249.916415,30.7934679 C249.562025,30.7934679 249.228554,30.8353607 248.917233,30.9179143 C248.605911,30.9992357 248.311817,31.1150571 248.036181,31.2616821 C247.760544,31.4095393 247.503366,31.5882 247.263415,31.7952 C247.023463,32.0022 246.799509,32.2301464 246.58909,32.4802714 L246.421739,31.3651821 C246.356522,31.1088964 246.189171,30.9819857 245.919687,30.9819857 L244.767921,30.9819857 L244.767921,44.3568964 L246.687531,44.3568964 L246.687531,40.0111286 Z" id="Fill-4" fill="#0072CE"></path>
                <path d="M258.918895,32.9333304 C259.38157,32.4663482 260.016519,32.2334732 260.823739,32.2334732 C261.217506,32.2334732 261.565743,32.2987768 261.86722,32.4306161 C262.168697,32.5612232 262.424645,32.7460446 262.635064,32.9826161 C262.845483,33.2191875 263.00422,33.4988839 263.112506,33.8204732 C263.220791,34.1420625 263.274934,34.4944554 263.274934,34.8751875 L258.037843,34.8751875 C258.162126,34.0471875 258.45622,33.4003125 258.918895,32.9333304 M258.968116,40.7845446 C259.555074,41.0186518 260.193713,41.1344732 260.882804,41.1344732 C261.243346,41.1344732 261.610041,41.1049018 261.980428,41.0457589 C262.352044,40.9866161 262.711356,40.8942054 263.058363,40.7697589 C263.405369,40.6453125 263.733918,40.4826696 264.042778,40.2818304 C264.351639,40.0822232 264.623583,39.8431875 264.859843,39.5671875 L264.30857,38.8574732 C264.223665,38.7391875 264.101843,38.6800446 263.944337,38.6800446 C263.826207,38.6800446 263.689619,38.7293304 263.535804,38.8279018 C263.380759,38.9264732 263.191259,39.0336696 262.964843,39.1482589 C262.738428,39.2640804 262.468944,39.3700446 262.157622,39.4686161 C261.846301,39.5671875 261.477145,39.6164732 261.050155,39.6164732 C260.597324,39.6164732 260.187561,39.5437768 259.819635,39.3996161 C259.45171,39.2554554 259.135467,39.0349018 258.869674,38.7391875 C258.603882,38.4434732 258.395924,38.0738304 258.24457,37.6302589 C258.093217,37.1866875 258.008311,36.6654911 257.988622,36.0679018 L264.54483,36.0679018 C264.722025,36.0679018 264.842616,36.0173839 264.909064,35.9151161 C264.974281,35.8128482 265.007506,35.6144732 265.007506,35.3187589 C265.007506,34.6016518 264.90045,33.9646339 264.68757,33.4064732 C264.474691,32.8483125 264.180596,32.3788661 263.806519,31.9969018 C263.432441,31.6161696 262.988223,31.3241518 262.472635,31.1245446 C261.957048,30.9237054 261.3947,30.8239018 260.784363,30.8239018 C260.055895,30.8239018 259.400028,30.9520446 258.815531,31.2083304 C258.231035,31.4646161 257.737596,31.8170089 257.333986,32.2630446 C256.930376,32.7090804 256.620285,33.2339732 256.403713,33.8352589 C256.187142,34.4365446 256.078856,35.0858839 256.078856,35.7820446 C256.078856,36.6494732 256.199447,37.4170982 256.438168,38.0836875 C256.678119,38.7515089 257.01282,39.3096696 257.442272,39.7594018 C257.871723,40.2091339 258.381158,40.5516696 258.968116,40.7845446" id="Fill-6" fill="#0072CE"></path>
                <path d="M272.488818,30.7939607 C271.852639,30.7939607 271.307519,30.9812464 270.854688,31.3558179 C270.401857,31.7316214 270.014243,32.2466571 269.693078,32.9033893 L269.574948,31.4938179 C269.541724,31.3040679 269.488811,31.1709964 269.412519,31.0946036 C269.337457,31.0194429 269.194717,30.9812464 268.984298,30.9812464 L267.881753,30.9812464 L267.881753,40.9961036 L269.801363,40.9961036 L269.801363,34.7269607 C269.925646,34.4053714 270.061003,34.11705 270.204974,33.8644607 C270.348944,33.6118714 270.515065,33.3974786 270.702104,33.2249786 C270.889143,33.0500143 271.100792,32.9194071 271.337052,32.8294607 C271.573311,32.7407464 271.846487,32.6963893 272.154117,32.6963893 C272.364535,32.6963893 272.561419,32.7148714 272.744766,32.7506036 C272.928113,32.7863357 273.065931,32.8048179 273.15822,32.8048179 C273.329263,32.8048179 273.437548,32.7173357 273.483078,32.538675 L273.611052,31.089675 C273.467081,30.9911036 273.297269,30.9184071 273.104078,30.8691214 C272.910886,30.8198357 272.705389,30.7939607 272.488818,30.7939607" id="Fill-8" fill="#0072CE"></path>
                <path d="M275.35359,32.538675 L276.515201,32.538675 L276.515201,38.5318179 C276.515201,39.3733714 276.733003,40.0202464 277.169837,40.473675 C277.606671,40.9283357 278.228084,41.1538179 279.035305,41.1538179 C279.501671,41.1538179 279.950811,41.0761929 280.383954,40.9172464 C280.817097,40.7595321 281.191175,40.5365143 281.506188,40.2469607 L280.935227,39.3203893 C280.89585,39.2550857 280.857704,39.2070321 280.822019,39.1786929 C280.786334,39.1478893 280.735882,39.1343357 280.669434,39.1343357 C280.616522,39.1343357 280.557457,39.1565143 280.49224,39.2021036 C280.427022,39.2476929 280.348269,39.2994429 280.25598,39.3548893 C280.163691,39.4103357 280.054175,39.4620857 279.926201,39.507675 C279.798227,39.5532643 279.645642,39.576675 279.468447,39.576675 C279.16697,39.576675 278.918405,39.4805679 278.725214,39.2871214 C278.532022,39.0924429 278.434811,38.7979607 278.434811,38.4049071 L278.434811,32.538675 L281.269928,32.538675 L281.269928,31.1389607 L278.434811,31.1389607 L278.434811,27.7789071 L277.46024,27.7789071 C277.34211,27.7789071 277.244899,27.8097107 277.169837,27.8713179 C277.094775,27.9341571 277.044324,28.0216393 277.017253,28.1325321 L276.58411,31.1204786 L274.959824,31.3459607 L274.959824,32.124675 C274.959824,32.262675 274.99674,32.366175 275.073032,32.435175 C275.148094,32.5054071 275.241613,32.538675 275.35359,32.538675" id="Fill-10" fill="#0072CE"></path>
                <path d="M291.738449,40.7894732 C292.279878,41.0198839 292.863144,41.1344732 293.485787,41.1344732 C293.846329,41.1344732 294.20318,41.1049018 294.553878,41.0457589 C294.904576,40.9866161 295.241738,40.8942054 295.562904,40.7697589 C295.8853,40.6453125 296.188008,40.4839018 296.473488,40.2867589 C296.758969,40.0896161 297.017378,39.8493482 297.246255,39.5671875 L296.694982,38.8574732 C296.610076,38.7391875 296.488255,38.6800446 296.330748,38.6800446 C296.206466,38.6800446 296.084644,38.7305625 295.966514,38.8328304 C295.848384,38.9350982 295.700722,39.0447589 295.523527,39.1630446 C295.346332,39.2813304 295.123608,39.3909911 294.854125,39.4932589 C294.584641,39.5942946 294.243787,39.6460446 293.830332,39.6460446 C293.404573,39.6460446 293.016959,39.5659554 292.668722,39.4045446 C292.321716,39.2431339 292.02516,39.0077946 291.782748,38.6948304 C291.540336,38.3830982 291.353297,37.9974375 291.221631,37.5415446 C291.091196,37.0844196 291.024748,36.5632232 291.024748,35.9791875 C291.024748,35.4148661 291.087505,34.9047589 291.211787,34.4513304 C291.336069,33.9979018 291.518186,33.6134732 291.758138,33.2980446 C291.998089,32.9826161 292.298336,32.7398839 292.658878,32.5686161 C293.020651,32.3973482 293.436566,32.3123304 293.909086,32.3123304 C294.270858,32.3123304 294.573566,32.3529911 294.81967,32.4355446 C295.065774,32.5180982 295.276193,32.6055804 295.449696,32.7016875 C295.623199,32.7977946 295.768401,32.8852768 295.882839,32.9678304 C295.997277,33.0503839 296.108024,33.0910446 296.212618,33.0910446 C296.317212,33.0910446 296.398427,33.0688661 296.4538,33.0269732 C296.509173,32.9838482 296.567008,32.9271696 296.626073,32.8544732 L297.137969,32.1447589 C296.712209,31.7245982 296.226154,31.3993125 295.681034,31.1689018 C295.135914,30.9384911 294.507118,30.8239018 293.790956,30.8239018 C293.029264,30.8239018 292.353709,30.9545089 291.76306,31.2132589 C291.17241,31.4720089 290.675281,31.8305625 290.27167,32.2876875 C289.86806,32.7448125 289.562891,33.2881875 289.356164,33.9190446 C289.149436,34.5499018 289.046073,35.2362054 289.046073,35.9791875 C289.046073,36.7948661 289.160511,37.5218304 289.390618,38.1625446 C289.620725,38.8032589 289.933277,39.3441696 290.330735,39.7840446 C290.728193,40.2239196 291.197021,40.5590625 291.738449,40.7894732" id="Fill-12" fill="#0072CE"></path>
                <path d="M305.200332,38.5224536 C305.009602,38.7257571 304.81641,38.9068821 304.619527,39.0633643 C304.422644,39.2210786 304.215917,39.3553821 303.999345,39.4638107 C303.782774,39.5722393 303.551436,39.656025 303.305332,39.7151679 C303.059229,39.7743107 302.788514,39.8038821 302.49319,39.8038821 C302.270466,39.8038821 302.063738,39.7780071 301.873008,39.725025 C301.683508,39.673275 301.517388,39.5882571 301.375878,39.4724357 C301.234368,39.3590786 301.123621,39.2112214 301.041177,39.0300964 C300.958732,38.8502036 300.918125,38.6345786 300.918125,38.3844536 C300.918125,38.1220071 300.994417,37.8829714 301.14454,37.6698107 C301.295894,37.45665 301.541998,37.2693643 301.882852,37.11165 C302.224936,36.9551679 302.666693,36.8282571 303.211813,36.7333821 C303.756933,36.6385071 304.418953,36.5769 305.200332,36.5497929 L305.200332,38.5224536 Z M306.16506,31.859025 C305.863582,31.52265 305.491966,31.2614357 305.05267,31.0753821 C304.613375,30.8880964 304.107631,30.7944536 303.53667,30.7944536 C302.75529,30.7944536 302.039128,30.9262929 301.385722,31.1887393 C300.732316,31.4511857 300.126901,31.8491679 299.569475,32.3814536 L299.914021,33.0024536 C299.973086,33.101025 300.050608,33.1860429 300.145358,33.2587393 C300.240108,33.3302036 300.354547,33.3659357 300.484982,33.3659357 C300.648641,33.3659357 300.808608,33.3141857 300.962423,33.2094536 C301.116238,33.1047214 301.297125,32.9876679 301.503852,32.859525 C301.710579,32.7313821 301.956683,32.6143286 302.242164,32.5095964 C302.527644,32.4036321 302.880803,32.3518821 303.30041,32.3518821 C303.924284,32.3518821 304.396803,32.5391679 304.717969,32.9137393 C305.039134,33.2883107 305.200332,33.8538643 305.200332,34.6091679 L305.200332,35.3385964 C304.064563,35.3644714 303.108449,35.4692036 302.330761,35.654025 C301.553073,35.8376143 300.923047,36.0754179 300.440683,36.3637393 C299.958319,36.6520607 299.611313,36.9798107 299.397203,37.344525 C299.184323,37.7092393 299.077268,38.0875071 299.077268,38.483025 C299.077268,38.9290607 299.151099,39.31965 299.298761,39.656025 C299.446423,39.9899357 299.648229,40.2708643 299.904177,40.4938821 C300.160125,40.7169 300.460371,40.8832393 300.804917,40.9916679 C301.149462,41.1000964 301.518618,41.1543107 301.912384,41.1543107 C302.286462,41.1543107 302.627316,41.1210429 302.936177,41.0557393 C303.245037,40.9904357 303.53544,40.8930964 303.807384,40.7637214 C304.079329,40.6368107 304.340199,40.4827929 304.589995,40.3004357 C304.83979,40.1205429 305.092047,39.9123107 305.347995,39.6757393 L305.554722,40.5517929 C305.613787,40.7230607 305.69254,40.8401143 305.790982,40.9029536 C305.889423,40.9645607 306.033394,40.9965964 306.224125,40.9965964 L307.080566,40.9965964 L307.080566,34.6091679 C307.080566,34.0436143 307.003044,33.5273464 306.849229,33.0603643 C306.695414,32.5946143 306.466537,32.1941679 306.16506,31.859025 Z" id="Fill-14" fill="#0072CE"></path>
                <path d="M315.073898,30.7939607 C314.437719,30.7939607 313.892599,30.9812464 313.439768,31.3558179 C312.986937,31.7316214 312.599323,32.2466571 312.278157,32.9033893 L312.160028,31.4938179 C312.126804,31.3040679 312.073891,31.1709964 311.997599,31.0946036 C311.922537,31.0194429 311.779797,30.9812464 311.569378,30.9812464 L310.466833,30.9812464 L310.466833,40.9961036 L312.386443,40.9961036 L312.386443,34.7269607 C312.510726,34.4053714 312.646083,34.11705 312.790054,33.8644607 C312.934024,33.6118714 313.100144,33.3974786 313.287183,33.2249786 C313.474222,33.0500143 313.685872,32.9194071 313.922131,32.8294607 C314.158391,32.7407464 314.431567,32.6963893 314.739196,32.6963893 C314.949615,32.6963893 315.146498,32.7148714 315.329846,32.7506036 C315.513193,32.7863357 315.651011,32.8048179 315.7433,32.8048179 C315.914343,32.8048179 316.022628,32.7173357 316.068157,32.538675 L316.196131,31.089675 C316.052161,30.9911036 315.882349,30.9184071 315.689157,30.8691214 C315.495966,30.8198357 315.290469,30.7939607 315.073898,30.7939607" id="Fill-16" fill="#0072CE"></path>
                <path d="M320.199134,32.9333304 C320.66181,32.4663482 321.296758,32.2334732 322.103979,32.2334732 C322.497745,32.2334732 322.845982,32.2987768 323.147459,32.4306161 C323.448936,32.5612232 323.704884,32.7460446 323.915303,32.9826161 C324.125722,33.2191875 324.284459,33.4988839 324.392745,33.8204732 C324.501031,34.1420625 324.555173,34.4944554 324.555173,34.8751875 L319.318082,34.8751875 C319.442365,34.0471875 319.736459,33.4003125 320.199134,32.9333304 M320.248355,40.7845446 C320.835313,41.0186518 321.473953,41.1344732 322.163044,41.1344732 C322.523586,41.1344732 322.890281,41.1049018 323.260667,41.0457589 C323.632284,40.9866161 323.991595,40.8942054 324.338602,40.7697589 C324.685608,40.6453125 325.014157,40.4826696 325.323018,40.2818304 C325.631878,40.0822232 325.903823,39.8431875 326.140082,39.5671875 L325.58881,38.8574732 C325.503904,38.7391875 325.382082,38.6800446 325.224576,38.6800446 C325.106446,38.6800446 324.969858,38.7293304 324.816044,38.8279018 C324.660998,38.9264732 324.471498,39.0336696 324.245082,39.1482589 C324.018667,39.2640804 323.749183,39.3700446 323.437862,39.4686161 C323.12654,39.5671875 322.757384,39.6164732 322.330394,39.6164732 C321.877563,39.6164732 321.4678,39.5437768 321.099875,39.3996161 C320.731949,39.2554554 320.415706,39.0349018 320.149914,38.7391875 C319.884121,38.4434732 319.676164,38.0738304 319.52481,37.6302589 C319.373456,37.1866875 319.28855,36.6654911 319.268862,36.0679018 L325.825069,36.0679018 C326.002264,36.0679018 326.122855,36.0173839 326.189303,35.9151161 C326.254521,35.8128482 326.287745,35.6144732 326.287745,35.3187589 C326.287745,34.6016518 326.18069,33.9646339 325.96781,33.4064732 C325.75493,32.8483125 325.460836,32.3788661 325.086758,31.9969018 C324.71268,31.6161696 324.268462,31.3241518 323.752875,31.1245446 C323.237287,30.9237054 322.67494,30.8239018 322.064602,30.8239018 C321.336134,30.8239018 320.680268,30.9520446 320.095771,31.2083304 C319.511274,31.4646161 319.017836,31.8170089 318.614225,32.2630446 C318.210615,32.7090804 317.900524,33.2339732 317.683953,33.8352589 C317.467381,34.4365446 317.359095,35.0858839 317.359095,35.7820446 C317.359095,36.6494732 317.479686,37.4170982 317.718407,38.0836875 C317.958358,38.7515089 318.29306,39.3096696 318.722511,39.7594018 C319.151962,40.2091339 319.661397,40.5516696 320.248355,40.7845446" id="Fill-18" fill="#0072CE"></path>
                <path d="M337.529771,40.9964732 L337.529771,32.5390446 L340.27629,32.5390446 L340.27629,31.1393304 L337.470706,31.1393304 L337.470706,30.2916161 C337.470706,29.8776161 337.516235,29.5301518 337.608524,29.2516875 C337.700813,28.9719911 337.831248,28.7477411 338.00229,28.5764732 C338.172102,28.4052054 338.378829,28.2844554 338.622472,28.2117589 C338.864884,28.1390625 339.134368,28.1033304 339.429693,28.1033304 C339.553975,28.1033304 339.670875,28.1020982 339.77916,28.0984018 C339.887446,28.0947054 339.978505,28.0836161 340.054797,28.0639018 C340.129858,28.0441875 340.191384,28.0133839 340.236914,27.9702589 C340.282443,27.9283661 340.308284,27.8642946 340.315667,27.7780446 L340.355044,26.8120446 C339.973582,26.6814375 339.557667,26.6149018 339.104836,26.6149018 C338.565868,26.6149018 338.082274,26.6962232 337.652823,26.8564018 C337.222141,27.0165804 336.855446,27.2543839 336.550277,27.5661161 C336.245108,27.8790804 336.010079,28.2573482 335.84642,28.7046161 C335.682761,29.1518839 335.600316,29.6607589 335.600316,30.2324732 L335.600316,31.1393304 L334.04494,31.1393304 L334.04494,31.9377589 C334.04494,32.0831518 334.09293,32.1915804 334.18768,32.2679732 C334.28243,32.3443661 334.405482,32.3973482 334.556836,32.4306161 L335.600316,32.5587589 L335.600316,40.9964732 L337.529771,40.9964732 Z" id="Fill-20" fill="#0072CE"></path>
                <path d="M347.550506,32.7504804 C347.733854,32.7862125 347.871672,32.8046946 347.963961,32.8046946 C348.135003,32.8046946 348.243289,32.7172125 348.288818,32.5385518 L348.416792,31.0895518 C348.272821,30.9909804 348.103009,30.9182839 347.909818,30.8689982 C347.716626,30.8197125 347.51113,30.7938375 347.294558,30.7938375 C346.65838,30.7938375 346.113259,30.9811232 345.660428,31.3556946 C345.207597,31.7314982 344.819983,32.2465339 344.498818,32.9032661 L344.380688,31.4936946 C344.347464,31.3039446 344.294552,31.1708732 344.218259,31.0944804 C344.143198,31.0193196 344.000457,30.9811232 343.790039,30.9811232 L342.687493,30.9811232 L342.687493,40.9959804 L344.607104,40.9959804 L344.607104,34.7268375 C344.731386,34.4052482 344.866743,34.1169268 345.010714,33.8643375 C345.154685,33.6117482 345.320805,33.3973554 345.507844,33.2248554 C345.694883,33.0498911 345.906532,32.9192839 346.142792,32.8293375 C346.379052,32.7406232 346.652227,32.6962661 346.959857,32.6962661 C347.170276,32.6962661 347.367159,32.7147482 347.550506,32.7504804" id="Fill-22" fill="#0072CE"></path>
                <path d="M356.637646,38.6801679 C356.17251,39.3184179 355.466192,39.6363107 354.521153,39.6363107 C353.562578,39.6363107 352.848877,39.3184179 352.380049,38.6801679 C351.911221,38.0419179 351.676192,37.14615 351.676192,35.9879357 C351.676192,34.8321857 351.911221,33.9327214 352.380049,33.2932393 C352.848877,32.6512929 353.562578,32.3321679 354.521153,32.3321679 C355.466192,32.3321679 356.17251,32.6512929 356.637646,33.2932393 C357.104013,33.9327214 357.336581,34.8321857 357.336581,35.9879357 C357.336581,37.14615 357.104013,38.0419179 356.637646,38.6801679 M358.9904,38.1183107 C359.213124,37.4800607 359.325101,36.7678821 359.325101,35.9793107 C359.325101,35.1907393 359.213124,34.4797929 358.9904,33.8452393 C358.767676,33.2119179 358.447741,32.6685429 358.030594,32.2188107 C357.613448,31.7690786 357.108935,31.4228464 356.514594,31.1838107 C355.920254,30.944775 355.255773,30.824025 354.521153,30.824025 C353.77915,30.824025 353.112208,30.944775 352.517867,31.1838107 C351.923526,31.4228464 351.416552,31.7690786 350.996945,32.2188107 C350.577338,32.6685429 350.253711,33.2119179 350.027296,33.8452393 C349.80088,34.4797929 349.687672,35.1907393 349.687672,35.9793107 C349.687672,36.7678821 349.80088,37.4800607 350.027296,38.1183107 C350.253711,38.7565607 350.577338,39.2974714 350.996945,39.7447393 C351.416552,40.1920071 351.923526,40.5345429 352.517867,40.7748107 C353.112208,41.0150786 353.77915,41.1345964 354.521153,41.1345964 C355.255773,41.1345964 355.920254,41.0150786 356.514594,40.7748107 C357.108935,40.5345429 357.613448,40.1920071 358.030594,39.7447393 C358.447741,39.2974714 358.767676,38.7565607 358.9904,38.1183107" id="Fill-24" fill="#0072CE"></path>
                <path d="M375.04548,31.8094929 C374.757538,31.4879036 374.404379,31.2427071 373.988463,31.0751357 C373.570087,30.9075643 373.096337,30.8237786 372.564752,30.8237786 C372.236204,30.8237786 371.913807,30.8632071 371.596333,30.9420643 C371.276398,31.0209214 370.976152,31.1429036 370.695593,31.3067786 C370.411343,31.4718857 370.156626,31.68135 369.926519,31.9376357 C369.697642,32.1939214 369.510603,32.4994929 369.366632,32.85435 C369.175902,32.2308857 368.873194,31.7355643 368.459739,31.3720821 C368.047515,31.0061357 367.508548,30.8237786 366.845298,30.8237786 C366.242343,30.8237786 365.715681,30.9630107 365.266541,31.2427071 C364.816171,31.5224036 364.407639,31.8821893 364.039713,32.3220643 L363.901895,31.3659214 C363.836678,31.1096357 363.669327,30.9814929 363.401074,30.9814929 L362.249307,30.9814929 L362.249307,40.99635 L364.167687,40.99635 L364.167687,33.5640643 C364.463012,33.1894929 364.7891,32.8937786 365.143489,32.6769214 C365.496648,32.4600643 365.881801,32.3516357 366.295256,32.3516357 C366.890827,32.3516357 367.344889,32.5364571 367.652519,32.9036357 C367.960148,33.2720464 368.116424,33.8425286 368.116424,34.6187786 L368.116424,40.99635 L370.044648,40.99635 L370.044648,34.6187786 C370.044648,34.2442071 370.098791,33.915225 370.207077,33.6330643 C370.315363,33.3509036 370.464256,33.1143321 370.650064,32.92335 C370.837103,32.7323679 371.056135,32.5906714 371.305931,32.4945643 C371.553265,32.3996893 371.817827,32.3516357 372.092233,32.3516357 C372.716106,32.3516357 373.189856,32.5426179 373.514713,32.92335 C373.83957,33.3053143 374.001999,33.8696357 374.001999,34.6187786 L374.001999,40.99635 L375.932684,40.99635 L375.932684,34.6187786 C375.932684,34.0137964 375.855161,33.4765821 375.706269,33.0022071 C375.554915,32.5290643 375.333421,32.1323143 375.04548,31.8094929" id="Fill-26" fill="#0072CE"></path>
                <g id="Group-30" transform="translate(221.493506, 52.750000)">
                    <mask id="mask-2" fill="white">
                        <use xlink:href="#path-1"></use>
                    </mask>
                    <g id="Clip-29"></g>
                    <path d="M6.58426364,8.12315536 C6.1019,8.75770893 5.42142273,9.07436964 4.5416013,9.07436964 C4.08877013,9.07436964 3.68023766,8.99181607 3.3160039,8.82794107 C2.95177013,8.66283393 2.61214675,8.3745125 2.29713377,7.9605125 L2.29713377,3.22045893 C2.64414026,2.75840536 3.02314026,2.40478036 3.43413377,2.15465536 C3.84389675,1.90453036 4.32872143,1.78131607 4.88614675,1.78131607 C5.26637727,1.78131607 5.60846169,1.84785179 5.90993896,1.9833875 C6.21141623,2.11769107 6.46613377,2.32715536 6.67286104,2.6130125 C6.87958831,2.89886964 7.03709481,3.26728036 7.14538052,3.7170125 C7.25366623,4.16674464 7.30780909,4.71011964 7.30780909,5.34836964 C7.30780909,6.56449464 7.06662727,7.48860179 6.58426364,8.12315536 M8.26269221,1.5435125 C7.93414351,1.11103036 7.53914675,0.782048214 7.07647143,0.557798214 C6.6137961,0.334780357 6.09697792,0.222655357 5.52601688,0.222655357 C5.17162727,0.222655357 4.83815649,0.263316071 4.52683506,0.345869643 C4.21551364,0.428423214 3.92141948,0.544244643 3.64578312,0.690869643 C3.37014675,0.838726786 3.11296818,1.01615536 2.87301688,1.22315536 C2.63306558,1.43015536 2.40788052,1.65933393 2.19869221,1.90822679 L2.03134156,0.794369643 C1.96612403,0.538083929 1.79754286,0.409941071 1.52928961,0.409941071 L0.377523377,0.409941071 L0.377523377,13.7860839 L2.29713377,13.7860839 L2.29713377,9.43908393 C2.63183506,9.79394107 3.01206558,10.0699411 3.43905584,10.2670839 C3.8660461,10.4642268 4.37794221,10.5627982 4.97474416,10.5627982 C5.64414675,10.5627982 6.24587078,10.4297268 6.78114675,10.1635839 C7.31642273,9.89744107 7.76802338,9.53149464 8.13964026,9.06574464 C8.51002662,8.5987625 8.79550714,8.0467625 8.99608182,7.41344107 C9.19665649,6.7788875 9.29632857,6.09135179 9.29632857,5.34836964 C9.29632857,4.52036964 9.20527013,3.78724464 9.02561429,3.15022679 C8.84472792,2.51320893 8.59001039,1.97722679 8.26269221,1.5435125" id="Fill-28" fill="#0072CE" mask="url(#mask-2)"></path>
                </g>
                <path d="M235.121387,57.0540054 C235.245669,56.2260054 235.539763,55.5791304 236.002439,55.1121482 C236.465114,54.6451661 237.100062,54.4110589 237.907283,54.4110589 C238.301049,54.4110589 238.649286,54.4775946 238.950763,54.6094339 C239.252241,54.7400411 239.508189,54.9236304 239.718607,55.1614339 C239.929026,55.3980054 240.087763,55.6777018 240.196049,55.9992911 C240.304335,56.3208804 240.358478,56.6720411 240.358478,57.0540054 L235.121387,57.0540054 Z M240.890062,54.1757196 C240.515984,53.7937554 240.070536,53.5029696 239.556179,53.3033625 C239.040591,53.1025232 238.478244,53.0027196 237.867906,53.0027196 C237.139439,53.0027196 236.482341,53.1296304 235.899075,53.3859161 C235.314578,53.6422018 234.82114,53.9958268 234.41753,54.4418625 C234.013919,54.8878982 233.703828,55.4127911 233.487257,56.0140768 C233.270685,56.6153625 233.1624,57.2647018 233.1624,57.9596304 C233.1624,58.8270589 233.28176,59.5959161 233.521711,60.2625054 C233.761663,60.9303268 234.096364,61.4884875 234.525815,61.9382196 C234.955267,62.3879518 235.463471,62.7292554 236.051659,62.9633625 C236.638617,63.1962375 237.277257,63.3132911 237.966348,63.3132911 C238.32689,63.3132911 238.692354,63.2837196 239.063971,63.2245768 C239.434357,63.1654339 239.793669,63.0730232 240.141906,62.9485768 C240.488913,62.8241304 240.817461,62.6614875 241.126322,62.4606482 C241.433952,62.2610411 241.707127,62.0220054 241.943387,61.7460054 L241.392114,61.0350589 C241.305978,60.9180054 241.185387,60.8588625 241.02788,60.8588625 C240.90975,60.8588625 240.773163,60.9081482 240.619348,61.0067196 C240.464302,61.1052911 240.274802,61.2124875 240.048387,61.3270768 C239.821971,61.4428982 239.552487,61.5476304 239.241166,61.6474339 C238.929844,61.7460054 238.559458,61.7952911 238.133698,61.7952911 C237.680867,61.7952911 237.271104,61.7225946 236.903179,61.5784339 C236.535254,61.4342732 236.21901,61.2137196 235.953218,60.9180054 C235.687426,60.6222911 235.479468,60.2526482 235.328114,59.8078446 C235.17676,59.3655054 235.091854,58.8443089 235.072166,58.2467196 L241.628374,58.2467196 C241.805569,58.2467196 241.926159,58.1962018 241.992607,58.0939339 C242.057825,57.9916661 242.091049,57.7932911 242.091049,57.4963446 C242.091049,56.7804696 241.983994,56.1434518 241.771114,55.5852911 C241.557004,55.0258982 241.26414,54.5576839 240.890062,54.1757196 Z" id="Fill-31" fill="#0072CE"></path>
                <path d="M251.324252,60.8587393 C250.859116,61.4969893 250.152797,61.8148821 249.207758,61.8148821 C248.249184,61.8148821 247.535482,61.4969893 247.066655,60.8587393 C246.597827,60.2204893 246.362797,59.3247214 246.362797,58.1665071 C246.362797,57.0107571 246.597827,56.1112929 247.066655,55.4718107 C247.535482,54.8298643 248.249184,54.5107393 249.207758,54.5107393 C250.152797,54.5107393 250.859116,54.8298643 251.324252,55.4718107 C251.790619,56.1112929 252.023187,57.0107571 252.023187,58.1665071 C252.023187,59.3247214 251.790619,60.2204893 251.324252,60.8587393 M252.7172,54.3973821 C252.300054,53.94765 251.795541,53.6014179 251.2012,53.3623821 C250.606859,53.1233464 249.942379,53.0025964 249.207758,53.0025964 C248.465755,53.0025964 247.798814,53.1233464 247.204473,53.3623821 C246.610132,53.6014179 246.103158,53.94765 245.683551,54.3973821 C245.263944,54.8471143 244.940317,55.3904893 244.713901,56.0238107 C244.487486,56.6583643 244.374278,57.3693107 244.374278,58.1578821 C244.374278,58.9464536 244.487486,59.6586321 244.713901,60.2968821 C244.940317,60.9351321 245.263944,61.4760429 245.683551,61.9233107 C246.103158,62.3705786 246.610132,62.7131143 247.204473,62.9533821 C247.798814,63.19365 248.465755,63.3131679 249.207758,63.3131679 C249.942379,63.3131679 250.606859,63.19365 251.2012,62.9533821 C251.795541,62.7131143 252.300054,62.3705786 252.7172,61.9233107 C253.134346,61.4760429 253.454281,60.9351321 253.677005,60.2968821 C253.899729,59.6586321 254.011706,58.9464536 254.011706,58.1578821 C254.011706,57.3693107 253.899729,56.6583643 253.677005,56.0238107 C253.454281,55.3904893 253.134346,54.8471143 252.7172,54.3973821" id="Fill-33" fill="#0072CE"></path>
                <g id="Group-37" transform="translate(255.948052, 52.750000)">
                    <mask id="mask-4" fill="white">
                        <use xlink:href="#path-3"></use>
                    </mask>
                    <g id="Clip-36"></g>
                    <path d="M7.19410909,8.12315536 C6.71174545,8.75770893 6.03126818,9.07436964 5.15144675,9.07436964 C4.69861558,9.07436964 4.29008312,8.99181607 3.92584935,8.82794107 C3.56161558,8.66283393 3.22199221,8.3745125 2.90697922,7.9605125 L2.90697922,3.22045893 C3.25398571,2.75840536 3.63298571,2.40478036 4.04397922,2.15465536 C4.45374221,1.90453036 4.93856688,1.78131607 5.49599221,1.78131607 C5.87622273,1.78131607 6.21830714,1.84785179 6.51978442,1.9833875 C6.82126169,2.11769107 7.07597922,2.32715536 7.28270649,2.6130125 C7.48943377,2.89886964 7.64694026,3.26728036 7.75522597,3.7170125 C7.86351169,4.16674464 7.91765455,4.71011964 7.91765455,5.34836964 C7.91765455,6.56449464 7.67647273,7.48860179 7.19410909,8.12315536 M8.87253766,1.5435125 C8.54398896,1.11103036 8.14899221,0.782048214 7.68631688,0.557798214 C7.22364156,0.334780357 6.70682338,0.222655357 6.13586234,0.222655357 C5.78147273,0.222655357 5.44800195,0.263316071 5.13668052,0.345869643 C4.82535909,0.428423214 4.53126494,0.544244643 4.25562857,0.690869643 C3.97999221,0.838726786 3.72281364,1.01615536 3.48286234,1.22315536 C3.24291104,1.43015536 3.01772597,1.65933393 2.80853766,1.90822679 L2.64118701,0.794369643 C2.57596948,0.538083929 2.40738831,0.409941071 2.13913506,0.409941071 L0.987368831,0.409941071 L0.987368831,13.7860839 L2.90697922,13.7860839 L2.90697922,9.43908393 C3.24168052,9.79394107 3.62191104,10.0699411 4.0489013,10.2670839 C4.47589156,10.4642268 4.98778766,10.5627982 5.58458961,10.5627982 C6.25399221,10.5627982 6.85571623,10.4297268 7.39099221,10.1635839 C7.92626818,9.89744107 8.37786883,9.53149464 8.74948571,9.06574464 C9.11987208,8.5987625 9.4053526,8.0467625 9.60592727,7.41344107 C9.80650195,6.7788875 9.90617403,6.09135179 9.90617403,5.34836964 C9.90617403,4.52036964 9.81511558,3.78724464 9.63545974,3.15022679 C9.45457338,2.51320893 9.19985584,1.97722679 8.87253766,1.5435125" id="Fill-35" fill="#0072CE" mask="url(#mask-4)"></path>
                </g>
                <mask id="mask-6" fill="white">
                    <use xlink:href="#path-5"></use>
                </mask>
                <g id="Clip-39"></g>
                <polygon id="Fill-38" fill="#0072CE" mask="url(#mask-6)" points="268.836513 63.1744286 270.765968 63.1744286 270.765968 48.6252857 268.836513 48.6252857"></polygon>
                <path d="M275.678694,57.0540054 C275.802976,56.2260054 276.09707,55.5791304 276.559745,55.1121482 C277.022421,54.6451661 277.657369,54.4110589 278.46459,54.4110589 C278.858356,54.4110589 279.206593,54.4775946 279.50807,54.6094339 C279.809547,54.7400411 280.065495,54.9236304 280.275914,55.1614339 C280.486333,55.3980054 280.64507,55.6777018 280.753356,55.9992911 C280.861642,56.3208804 280.915784,56.6720411 280.915784,57.0540054 L275.678694,57.0540054 Z M281.447369,54.1757196 C281.073291,53.7937554 280.627843,53.5029696 280.113486,53.3033625 C279.597898,53.1025232 279.035551,53.0027196 278.425213,53.0027196 C277.696745,53.0027196 277.039648,53.1296304 276.456382,53.3859161 C275.871885,53.6422018 275.378447,53.9958268 274.974836,54.4418625 C274.571226,54.8878982 274.261135,55.4127911 274.044564,56.0140768 C273.827992,56.6153625 273.719706,57.2647018 273.719706,57.9596304 C273.719706,58.8270589 273.839067,59.5959161 274.079018,60.2625054 C274.318969,60.9303268 274.653671,61.4884875 275.083122,61.9382196 C275.512573,62.3879518 276.020778,62.7292554 276.608966,62.9633625 C277.195924,63.1962375 277.834564,63.3132911 278.523655,63.3132911 C278.884197,63.3132911 279.249661,63.2837196 279.621278,63.2245768 C279.991664,63.1654339 280.350976,63.0730232 280.699213,62.9485768 C281.046219,62.8241304 281.374768,62.6614875 281.683629,62.4606482 C281.991258,62.2610411 282.264434,62.0220054 282.500694,61.7460054 L281.949421,61.0350589 C281.863284,60.9180054 281.742694,60.8588625 281.585187,60.8588625 C281.467057,60.8588625 281.330469,60.9081482 281.176655,61.0067196 C281.021609,61.1052911 280.832109,61.2124875 280.605694,61.3270768 C280.379278,61.4428982 280.109794,61.5476304 279.798473,61.6474339 C279.487151,61.7460054 279.116765,61.7952911 278.691005,61.7952911 C278.238174,61.7952911 277.828411,61.7225946 277.460486,61.5784339 C277.09256,61.4342732 276.776317,61.2137196 276.510525,60.9180054 C276.244732,60.6222911 276.036775,60.2526482 275.885421,59.8078446 C275.734067,59.3655054 275.649161,58.8443089 275.629473,58.2467196 L282.185681,58.2467196 C282.362875,58.2467196 282.483466,58.1962018 282.549914,58.0939339 C282.615132,57.9916661 282.648356,57.7932911 282.648356,57.4963446 C282.648356,56.7804696 282.541301,56.1434518 282.328421,55.5852911 C282.11431,55.0258982 281.821447,54.5576839 281.447369,54.1757196 Z" id="Fill-40" fill="#0072CE" mask="url(#mask-6)"></path>
                <path d="M302.971862,53.2684929 C302.869729,53.3411893 302.803281,53.4336 302.770056,53.5444929 L300.939044,59.69535 C300.873826,59.9516357 300.814761,60.1992964 300.761849,60.4395643 C300.708936,60.6798321 300.663407,60.9176357 300.624031,61.1542071 C300.571118,60.911475 300.512053,60.669975 300.446836,60.4297071 C300.381618,60.1894393 300.312709,59.945475 300.240108,59.69535 L298.290966,53.5050643 C298.257742,53.3941714 298.193755,53.3029929 298.099005,53.2339929 C298.004255,53.1649929 297.883664,53.1304929 297.739693,53.1304929 L296.90294,53.1304929 C296.771274,53.1304929 296.660527,53.1649929 296.568238,53.2339929 C296.475949,53.3029929 296.414423,53.3941714 296.381199,53.5050643 L294.382836,59.69535 C294.310235,59.945475 294.240095,60.1882071 294.171186,60.4247786 C294.102277,60.66135 294.03829,60.8979214 293.979225,61.1344929 C293.939849,60.8979214 293.896781,60.66135 293.851251,60.4247786 C293.805722,60.1882071 293.75281,59.945475 293.693745,59.69535 L291.892264,53.5444929 C291.85904,53.4336 291.792592,53.3411893 291.690459,53.2684929 C291.589556,53.1957964 291.461582,53.1600643 291.311459,53.1600643 L289.795459,53.1600643 L293.024342,63.1749214 L294.481277,63.1749214 C294.697849,63.1749214 294.839358,63.0529393 294.904576,62.8102071 L297.040758,56.3044929 C297.145352,55.9829036 297.227797,55.6514571 297.286862,55.3089214 C297.320086,55.4727964 297.355771,55.6366714 297.395147,55.79685 C297.434524,55.9582607 297.480053,56.1196714 297.532966,56.2847786 L299.639615,62.8102071 C299.704832,63.0529393 299.830345,63.1749214 300.013693,63.1749214 L301.549381,63.1749214 L304.76842,53.1600643 L303.321329,53.1600643 C303.189664,53.1600643 303.073995,53.1957964 302.971862,53.2684929" id="Fill-41" fill="#0072CE" mask="url(#mask-6)"></path>
                <path d="M314.779557,54.0518893 C314.497769,53.7204429 314.148301,53.4616929 313.731155,53.2781036 C313.314009,53.0945143 312.830415,53.0021036 312.279142,53.0021036 C311.615892,53.0021036 311.030165,53.1339429 310.52196,53.3976214 C310.012525,53.6600679 309.548619,54.0050679 309.129012,54.4326214 L309.129012,48.6267643 L307.209402,48.6267643 L307.209402,63.174675 L309.129012,63.174675 L309.129012,55.8311036 C309.496937,55.4306571 309.895626,55.1127643 310.325077,54.8798893 C310.754528,54.6470143 311.215973,54.5311929 311.708181,54.5311929 C312.383736,54.5311929 312.885788,54.7295679 313.214337,55.1263179 C313.542885,55.5243 313.706544,56.0812286 313.706544,56.7983357 L313.706544,63.174675 L315.635999,63.174675 L315.635999,56.7983357 C315.635999,56.2327821 315.563398,55.7165143 315.419428,55.2507643 C315.274226,54.7837821 315.061346,54.3845679 314.779557,54.0518893" id="Fill-42" fill="#0072CE" mask="url(#mask-6)"></path>
                <path d="M325.410754,60.8587393 C324.945617,61.4969893 324.239299,61.8148821 323.29426,61.8148821 C322.335685,61.8148821 321.621984,61.4969893 321.153156,60.8587393 C320.684328,60.2204893 320.449299,59.3247214 320.449299,58.1665071 C320.449299,57.0107571 320.684328,56.1112929 321.153156,55.4718107 C321.621984,54.8298643 322.335685,54.5107393 323.29426,54.5107393 C324.239299,54.5107393 324.945617,54.8298643 325.410754,55.4718107 C325.87712,56.1112929 326.109689,57.0107571 326.109689,58.1665071 C326.109689,59.3247214 325.87712,60.2204893 325.410754,60.8587393 M326.803702,54.3973821 C326.386556,53.94765 325.882043,53.6014179 325.287702,53.3623821 C324.693361,53.1233464 324.02888,53.0025964 323.29426,53.0025964 C322.552257,53.0025964 321.885315,53.1233464 321.290974,53.3623821 C320.696633,53.6014179 320.189659,53.94765 319.770052,54.3973821 C319.350445,54.8471143 319.026819,55.3904893 318.800403,56.0238107 C318.573987,56.6583643 318.46078,57.3693107 318.46078,58.1578821 C318.46078,58.9464536 318.573987,59.6586321 318.800403,60.2968821 C319.026819,60.9351321 319.350445,61.4760429 319.770052,61.9233107 C320.189659,62.3705786 320.696633,62.7131143 321.290974,62.9533821 C321.885315,63.19365 322.552257,63.3131679 323.29426,63.3131679 C324.02888,63.3131679 324.693361,63.19365 325.287702,62.9533821 C325.882043,62.7131143 326.386556,62.3705786 326.803702,61.9233107 C327.220848,61.4760429 327.540783,60.9351321 327.763507,60.2968821 C327.986231,59.6586321 328.098208,58.9464536 328.098208,58.1578821 C328.098208,57.3693107 327.986231,56.6583643 327.763507,56.0238107 C327.540783,55.3904893 327.220848,54.8471143 326.803702,54.3973821" id="Fill-43" fill="#0072CE" mask="url(#mask-6)"></path>
                <path d="M343.514033,60.8587393 C343.389751,60.8587393 343.267929,60.9092571 343.149799,61.011525 C343.031669,61.1137929 342.884007,61.2234536 342.706812,61.3417393 C342.529618,61.460025 342.306894,61.5696857 342.03741,61.6719536 C341.769156,61.7729893 341.427072,61.8247393 341.013618,61.8247393 C340.587858,61.8247393 340.200244,61.74465 339.852007,61.5832393 C339.505001,61.4218286 339.208445,61.1864893 338.966033,60.873525 C338.723621,60.5617929 338.536582,60.1761321 338.404916,59.7202393 C338.274481,59.2631143 338.208033,58.7419179 338.208033,58.1578821 C338.208033,57.5935607 338.27079,57.0834536 338.395072,56.630025 C338.519355,56.1765964 338.701471,55.7921679 338.941423,55.4767393 C339.181374,55.1613107 339.481621,54.9185786 339.842163,54.7473107 C340.203936,54.5760429 340.619851,54.491025 341.092371,54.491025 C341.454144,54.491025 341.756851,54.5316857 342.002955,54.6142393 C342.249059,54.6967929 342.459478,54.784275 342.632981,54.87915 C342.806484,54.9764893 342.951686,55.0639714 343.066124,55.146525 C343.180562,55.2290786 343.291309,55.2697393 343.395903,55.2697393 C343.500497,55.2697393 343.581712,55.2475607 343.637085,55.2056679 C343.693689,55.1625429 343.750293,55.1058643 343.809358,55.0319357 L344.321254,54.3234536 C343.895494,53.9020607 343.409439,53.5780071 342.864319,53.3475964 C342.319199,53.1171857 341.690403,53.0025964 340.974241,53.0025964 C340.212549,53.0025964 339.536994,53.1319714 338.946345,53.3907214 C338.355695,53.6507036 337.858566,54.0092571 337.454955,54.4663821 C337.051345,54.9235071 336.746176,55.4668821 336.539449,56.0977393 C336.332721,56.7273643 336.229358,57.4149 336.229358,58.1578821 C336.229358,58.9735607 336.343796,59.700525 336.573903,60.3412393 C336.80401,60.9819536 337.116562,61.5228643 337.51402,61.9627393 C337.911478,62.4026143 338.380306,62.7377571 338.921734,62.9681679 C339.463163,63.1973464 340.046429,63.3131679 340.669072,63.3131679 C341.029614,63.3131679 341.386465,63.2835964 341.737163,63.2244536 C342.087861,63.1653107 342.425023,63.0729 342.746189,62.9484536 C343.068585,62.8240071 343.371293,62.6625964 343.656773,62.4654536 C343.942254,62.2683107 344.200663,62.0280429 344.42954,61.7458821 L343.878267,61.0361679 C343.793361,60.9178821 343.67154,60.8587393 343.514033,60.8587393" id="Fill-44" fill="#0072CE" mask="url(#mask-6)"></path>
                <path d="M352.402937,60.701025 C352.212206,60.9043286 352.019015,61.0854536 351.822131,61.2419357 C351.625248,61.39965 351.418521,61.5339536 351.20195,61.6423821 C350.985378,61.7508107 350.754041,61.8345964 350.507937,61.8937393 C350.261833,61.9528821 349.991119,61.9824536 349.695794,61.9824536 C349.47307,61.9824536 349.266343,61.9565786 349.075612,61.9035964 C348.886112,61.8518464 348.719992,61.7668286 348.578482,61.6510071 C348.436972,61.53765 348.326226,61.3897929 348.243781,61.2086679 C348.161336,61.028775 348.120729,60.81315 348.120729,60.563025 C348.120729,60.3005786 348.197021,60.0615429 348.347144,59.8483821 C348.498498,59.6352214 348.744602,59.4479357 349.085456,59.2902214 C349.427541,59.1337393 349.869297,59.0068286 350.414417,58.9119536 C350.959537,58.8170786 351.621557,58.7554714 352.402937,58.7283643 L352.402937,60.701025 Z M353.367664,54.0375964 C353.066187,53.7012214 352.69457,53.4400071 352.255274,53.2539536 C351.815979,53.0666679 351.310235,52.973025 350.739274,52.973025 C349.957894,52.973025 349.241732,53.1048643 348.588326,53.3673107 C347.93492,53.6297571 347.329505,54.0277393 346.77208,54.560025 L347.116625,55.181025 C347.17569,55.2795964 347.253213,55.3646143 347.347963,55.4373107 C347.442713,55.508775 347.557151,55.5445071 347.687586,55.5445071 C347.851245,55.5445071 348.011213,55.4927571 348.165028,55.388025 C348.318843,55.2832929 348.499729,55.1662393 348.706456,55.0380964 C348.913183,54.9099536 349.159287,54.7929 349.444768,54.6881679 C349.730248,54.5822036 350.083407,54.5304536 350.503015,54.5304536 C351.126888,54.5304536 351.599407,54.7177393 351.920573,55.0923107 C352.241739,55.4668821 352.402937,56.0324357 352.402937,56.7877393 L352.402937,57.5171679 C351.267167,57.5430429 350.311054,57.647775 349.533365,57.8325964 C348.755677,58.0161857 348.125651,58.2539893 347.643287,58.5423107 C347.160924,58.8306321 346.813917,59.1583821 346.599807,59.5230964 C346.386927,59.8878107 346.279872,60.2660786 346.279872,60.6615964 C346.279872,61.1076321 346.353703,61.4982214 346.501365,61.8345964 C346.649028,62.1685071 346.850833,62.4494357 347.106781,62.6724536 C347.362729,62.8954714 347.662976,63.0618107 348.007521,63.1702393 C348.352067,63.2786679 348.721222,63.3328821 349.114989,63.3328821 C349.489067,63.3328821 349.82992,63.2996143 350.138781,63.2343107 C350.447641,63.1690071 350.738044,63.0716679 351.009989,62.9422929 C351.281933,62.8153821 351.542804,62.6613643 351.792599,62.4790071 C352.042394,62.2991143 352.294651,62.0908821 352.550599,61.8543107 L352.757326,62.7303643 C352.816391,62.9016321 352.895144,63.0186857 352.993586,63.081525 C353.092028,63.1431321 353.235998,63.1751679 353.426729,63.1751679 L354.28317,63.1751679 L354.28317,56.7877393 C354.28317,56.2221857 354.205648,55.7059179 354.051833,55.2389357 C353.898018,54.7731857 353.669141,54.3727393 353.367664,54.0375964 Z" id="Fill-45" fill="#0072CE" mask="url(#mask-6)"></path>
                <path d="M362.276502,52.9725321 C361.640323,52.9725321 361.095203,53.1598179 360.642372,53.5343893 C360.189541,53.9101929 359.801927,54.4252286 359.480762,55.0819607 L359.362632,53.6723893 C359.329408,53.4826393 359.276495,53.3495679 359.200203,53.273175 C359.125142,53.1980143 358.982401,53.1598179 358.771982,53.1598179 L357.669437,53.1598179 L357.669437,63.174675 L359.589047,63.174675 L359.589047,56.9055321 C359.71333,56.5839429 359.848687,56.2956214 359.992658,56.0430321 C360.136629,55.7904429 360.302749,55.57605 360.489788,55.40355 C360.676827,55.2285857 360.888476,55.0979786 361.124736,55.0080321 C361.360995,54.9193179 361.634171,54.8749607 361.941801,54.8749607 C362.152219,54.8749607 362.349103,54.8934429 362.53245,54.929175 C362.715797,54.9649071 362.853616,54.9833893 362.945905,54.9833893 C363.116947,54.9833893 363.225232,54.8959071 363.270762,54.7172464 L363.398736,53.2682464 C363.254765,53.169675 363.084953,53.0969786 362.891762,53.0476929 C362.69857,52.9984071 362.493073,52.9725321 362.276502,52.9725321" id="Fill-46" fill="#0072CE" mask="url(#mask-6)"></path>
                <path d="M366.58935,57.0540054 C366.714863,56.2260054 367.008957,55.5791304 367.471632,55.1121482 C367.934307,54.6451661 368.568025,54.4110589 369.376476,54.4110589 C369.769012,54.4110589 370.117249,54.4775946 370.418726,54.6094339 C370.720204,54.7400411 370.976152,54.9236304 371.18657,55.1614339 C371.396989,55.3980054 371.555726,55.6777018 371.664012,55.9992911 C371.772298,56.3208804 371.827671,56.6720411 371.827671,57.0540054 L366.58935,57.0540054 Z M372.358025,54.1757196 C371.985178,53.7937554 371.53973,53.5029696 371.024142,53.3033625 C370.509785,53.1025232 369.947437,53.0027196 369.335869,53.0027196 C368.608632,53.0027196 367.951535,53.1296304 367.368269,53.3859161 C366.782541,53.6422018 366.290333,53.9958268 365.886723,54.4418625 C365.483113,54.8878982 365.173022,55.4127911 364.95522,56.0140768 C364.739879,56.6153625 364.630363,57.2647018 364.630363,57.9596304 C364.630363,58.8270589 364.750954,59.5959161 364.989674,60.2625054 C365.229626,60.9303268 365.564327,61.4884875 365.995009,61.9382196 C366.42323,62.3879518 366.932665,62.7292554 367.520853,62.9633625 C368.10658,63.1962375 368.74522,63.3132911 369.435541,63.3132911 C369.794853,63.3132911 370.161548,63.2837196 370.531934,63.2245768 C370.903551,63.1654339 371.262863,63.0730232 371.609869,62.9485768 C371.958106,62.8241304 372.286655,62.6614875 372.594285,62.4606482 C372.903145,62.2610411 373.17632,62.0220054 373.41135,61.7460054 L372.861307,61.0350589 C372.775171,60.9180054 372.65458,60.8588625 372.497074,60.8588625 C372.377713,60.8588625 372.242356,60.9081482 372.088541,61.0067196 C371.933496,61.1052911 371.742765,61.2124875 371.51635,61.3270768 C371.289934,61.4428982 371.021681,61.5476304 370.710359,61.6474339 C370.397807,61.7460054 370.028652,61.7952911 369.601661,61.7952911 C369.14883,61.7952911 368.739067,61.7225946 368.371142,61.5784339 C368.003217,61.4342732 367.688204,61.2137196 367.422411,60.9180054 C367.155389,60.6222911 366.947431,60.2526482 366.796077,59.8078446 C366.645954,59.3655054 366.561048,58.8443089 366.540129,58.2467196 L373.096337,58.2467196 C373.274762,58.2467196 373.395353,58.1962018 373.46057,58.0939339 C373.527019,57.9916661 373.559012,57.7932911 373.559012,57.4963446 C373.559012,56.7804696 373.451957,56.1434518 373.239077,55.5852911 C373.026197,55.0258982 372.732103,54.5576839 372.358025,54.1757196 Z" id="Fill-47" fill="#0072CE" mask="url(#mask-6)"></path>
                <path d="M378.60488,61.5192911 C378.534741,61.3615768 378.441221,61.2235768 378.323091,61.1052911 C378.206192,60.9857732 378.067143,60.8933625 377.910867,60.8243625 C377.753361,60.7553625 377.58601,60.7208625 377.407585,60.7208625 C377.224237,60.7208625 377.053195,60.7553625 376.895689,60.8243625 C376.738182,60.8933625 376.602825,60.9857732 376.487156,61.1052911 C376.373948,61.2235768 376.28289,61.3615768 376.217672,61.5192911 C376.151224,61.6770054 376.118,61.8445768 376.118,62.0220054 C376.118,62.2055946 376.151224,62.3756304 376.217672,62.5345768 C376.28289,62.6922911 376.373948,62.8290589 376.487156,62.9485768 C376.602825,63.0668625 376.738182,63.1580411 376.895689,63.2245768 C377.053195,63.2898804 377.224237,63.3231482 377.407585,63.3231482 C377.58601,63.3231482 377.753361,63.2898804 377.910867,63.2245768 C378.067143,63.1580411 378.206192,63.0668625 378.323091,62.9485768 C378.441221,62.8290589 378.534741,62.6922911 378.60488,62.5345768 C378.673789,62.3756304 378.708244,62.2055946 378.708244,62.0220054 C378.708244,61.8445768 378.673789,61.6770054 378.60488,61.5192911" id="Fill-48" fill="#0072CE" mask="url(#mask-6)"></path>
                <polygon id="Fill-49" fill="#0072CE" mask="url(#mask-6)" points="198.384351 64.8747857 198.99961 64.8747857 198.99961 0.942589286 198.384351 0.942589286"></polygon>
                <path d="M72.5852679,27.2755768 C69.1336607,27.2755768 66.9310308,25.2142018 65.9798393,21.0889875 L64.3370958,21.3403446 C64.4330763,22.3186661 64.5868912,23.5150768 64.8010016,24.9345054 C65.0163425,26.3527018 65.1812321,27.2398446 65.3018231,27.5971661 C67.919138,28.5754875 70.4429334,29.0634161 72.8707484,29.0634161 C75.2985633,29.0634161 77.2501672,28.3549339 78.7267906,26.9367375 C80.2021834,25.5173089 80.9392646,23.7417911 80.9392646,21.6077196 C80.9392646,19.4761125 80.0938977,17.7178446 78.4043945,16.3353804 C77.6673133,15.7168446 76.8453263,15.1500589 75.9408945,14.6374875 C75.0364627,14.1249161 74.1320308,13.6431482 73.227599,13.1884875 C72.3231672,12.7362911 71.5024107,12.2840946 70.764099,11.8306661 C69.0733653,10.8055232 68.2292289,9.60295179 68.2292289,8.21925536 C68.2292289,7.05241607 68.6402224,6.14063036 69.4609789,5.48389821 C70.2817354,4.82963036 71.3350601,4.50188036 72.6209529,4.50188036 C74.4298166,4.50188036 75.8633718,5.0551125 76.922849,6.16404107 C77.9823263,7.27296964 78.5594399,8.66159464 78.6554205,10.3299161 L79.7616575,10.4013804 C79.8564075,9.63868393 79.9043977,8.50018393 79.9043977,6.98588036 C79.9043977,5.47280893 79.8207224,4.5376125 79.6546023,4.17905893 C77.7263782,3.27466607 75.4166932,2.8212375 72.7280081,2.8212375 C70.6324334,2.8212375 68.8235698,3.36338036 67.3001867,4.44766607 C65.7768036,5.53318393 65.0163425,7.13496964 65.0163425,9.25671964 C65.0163425,10.7340589 65.4494854,12.0278089 66.3182321,13.1342732 C67.1869789,14.2432018 68.2476867,15.1328089 69.496664,15.7993982 C70.7456412,16.4672196 71.995849,17.1103982 73.2460568,17.7301661 C74.4962646,18.3499339 75.5545114,19.0830589 76.4232581,19.9283089 C77.2920049,20.7747911 77.7263782,21.7937732 77.7263782,22.9852554 C77.7263782,24.1755054 77.2809302,25.1907911 76.3875731,26.0224875 C75.4954464,26.8591125 74.2280114,27.2755768 72.5852679,27.2755768" id="Fill-50" fill="#0072CE" mask="url(#mask-6)"></path>
                <path d="M84.0895175,15.0492696 C84.2310273,15.0492696 84.3442351,15.0825375 84.4279104,15.1552339 C84.5103552,15.2266982 84.5521929,15.4065911 84.5521929,15.6912161 L84.5521929,24.6661446 C84.5521929,25.8576268 84.8918162,26.8876982 85.571063,27.7563589 C86.2490792,28.6287161 87.2839461,29.0636625 88.6768942,29.0636625 C90.0686117,29.0636625 91.4197221,28.5757339 92.7289948,27.5974125 L92.0866636,26.6314125 C91.9919136,26.5377696 91.8947026,26.5131268 91.8011831,26.5611804 C91.2056117,26.9406804 90.5558974,27.1328946 89.8557318,27.1328946 C89.1531052,27.1328946 88.5993714,26.8297875 88.1945305,26.2198768 C87.7896896,25.6111982 87.5878844,24.7363768 87.5878844,23.5941804 L87.6235695,15.6912161 L87.6235695,15.6209839 L87.6235695,15.5852518 C87.6235695,15.2266982 87.7416994,15.0492696 87.9804201,15.0492696 L92.4435143,15.0492696 L92.1223487,13.2614304 L88.0517903,13.2614304 C87.7416994,13.2614304 87.5878844,13.1061804 87.5878844,12.7956804 L87.4451442,9.93587679 C87.4451442,9.79171607 87.3614688,9.72148393 87.1953487,9.72148393 L86.802813,9.72148393 C86.2072416,10.8895554 85.5932123,11.8185911 84.9631864,12.5085911 C84.3319299,13.2022875 83.517326,13.7013054 82.5181442,14.0118054 L82.8393097,15.0492696 L84.0895175,15.0492696 Z" id="Fill-51" fill="#0072CE" mask="url(#mask-6)"></path>
                <path d="M97.1818756,28.8121821 C97.7651419,28.8121821 98.2585802,28.5990214 98.6634211,28.1702357 C99.068262,27.7402179 99.2700672,27.2350393 99.2700672,26.6497714 C99.2700672,26.0657357 99.0854893,25.60245 98.717564,25.2549857 C98.3484081,24.9099857 97.8660445,24.7362536 97.2704731,24.7362536 C96.6749016,24.7362536 96.1753107,24.9457179 95.7717003,25.3621821 C95.3668594,25.7798786 95.1650542,26.2739679 95.1650542,26.8469143 C95.1650542,27.4186286 95.3545542,27.888075 95.7360153,28.25895 C96.1162458,28.629825 96.5986094,28.8121821 97.1818756,28.8121821" id="Fill-52" fill="#0072CE" mask="url(#mask-6)"></path>
                <path d="M120.123066,29.0624304 C123.454082,29.0624304 126.322423,28.3835196 128.726858,27.0256982 C128.942199,27.0256982 129.281822,26.2568411 129.744497,24.7191268 C130.209634,23.1826446 130.442202,22.2819482 130.442202,22.0195018 L129.406105,21.8051089 C127.906101,25.4522518 125.050066,27.2758232 120.836767,27.2758232 C117.766621,27.2758232 115.266205,26.1447161 113.337981,23.8788054 C111.410988,21.6141268 110.44626,18.8565911 110.44626,15.6012696 C110.44626,12.3496446 111.273169,9.69068036 112.926988,7.62930536 C114.582036,5.5691625 117.057842,4.53785893 120.354403,4.53785893 C123.650965,4.53785893 125.942192,5.35969821 127.228085,7.00460893 C127.822426,7.76607321 128.214962,8.84050179 128.405692,10.2205018 L129.406105,10.3301625 C129.524234,9.01793036 129.58453,7.7426625 129.58453,6.50189464 C129.58453,5.26482321 129.500855,4.46639464 129.334734,4.10784107 C129.120624,4.0856625 127.983624,3.86387679 125.924965,3.44494821 C123.865075,3.03094821 122.085744,2.82148393 120.585741,2.82148393 C116.493033,2.82148393 113.153403,4.04130536 110.571773,6.48464464 C107.988913,8.92798393 106.696868,12.2486089 106.696868,16.4440554 C106.696868,20.1380196 107.940923,23.1641625 110.429033,25.5249482 C112.915913,27.8832696 116.147257,29.0624304 120.123066,29.0624304" id="Fill-53" fill="#0072CE" mask="url(#mask-6)"></path>
                <path d="M133.18663,4.39369821 C133.650535,4.39369821 134.019691,4.53662679 134.292867,4.82248393 C134.567272,5.10834107 134.70386,5.64555536 134.70386,6.4316625 L134.70386,26.0954304 C134.70386,26.5956804 134.591883,26.9000196 134.365467,27.0072161 C134.139052,27.1144125 133.454883,27.2166804 132.31173,27.3103232 L132.597211,28.7408411 L136.453659,28.6336446 L140.024626,28.7408411 L139.70223,27.3103232 C138.869169,27.2400911 138.333893,27.1267339 138.096402,26.9714839 C137.857681,26.8162339 137.739552,26.5242161 137.739552,26.0954304 L137.739552,2.14134107 C137.739552,1.6879125 137.524211,1.46243036 137.09599,1.46243036 C135.477857,2.17707321 133.751438,2.80793036 131.919194,3.35746607 L132.24036,4.42943036 C132.40648,4.40601964 132.722724,4.39369821 133.18663,4.39369821" id="Fill-54" fill="#0072CE" mask="url(#mask-6)"></path>
                <path d="M145.158354,24.9147911 C145.158354,24.1065054 145.502899,23.4793446 146.194451,23.0394696 C146.884772,22.5971304 148.25311,22.1991482 150.300694,21.8418268 L150.300694,25.8462911 C149.705123,26.6545768 148.800691,27.0599518 147.586169,27.0599518 C146.920457,27.0599518 146.360571,26.8886839 145.90897,26.5424518 C145.456139,26.1962196 145.206344,25.6553089 145.158354,24.9147911 Z M146.265821,29.0621839 C147.074272,29.0141304 147.877802,28.7529161 148.675178,28.2773089 C149.472555,27.8004696 150.074279,27.2743446 150.47912,26.7038625 C150.57387,27.5848446 150.71661,28.1996839 150.907341,28.5434518 C151.098071,28.8896839 151.430311,29.0621839 151.907753,29.0621839 C152.382733,29.0621839 153.127198,28.9130946 154.138685,28.6161482 C155.151402,28.3192018 155.798656,28.0974161 156.084136,27.9557196 C156.012766,27.8127911 155.929091,27.4295946 155.834341,26.8098268 C155.78635,26.8357018 155.702675,26.8467911 155.585776,26.8467911 L154.835159,26.8467911 C154.383558,26.8467911 154.007019,26.7383625 153.710464,26.5252018 C153.412678,26.3108089 153.263785,25.8216482 153.263785,25.0577196 L153.263785,17.9075946 C153.263785,14.5241304 151.765013,12.8311661 148.765006,12.8311661 C148.003315,12.8311661 146.943837,13.0812911 145.587805,13.5827732 C144.230542,14.0817911 143.37287,14.5709518 143.01725,15.0477911 C142.635789,15.4778089 142.445058,16.0248804 142.445058,16.6927018 C142.445058,17.3592911 142.539808,17.7905411 142.730539,17.9790589 C142.921269,18.0271125 143.116922,18.0529875 143.319957,18.0529875 C143.521763,18.0529875 143.938909,17.9926125 144.570165,17.8718625 C145.200191,17.7535768 145.516435,17.6352911 145.516435,17.5145411 L145.516435,15.0835232 C146.110776,14.7496125 146.742032,14.5832732 147.408974,14.5832732 C149.335967,14.5832732 150.300694,15.8696304 150.300694,18.4435768 L150.300694,20.5899696 C146.967217,21.2085054 144.736285,21.8479875 143.605438,22.5022554 C142.474591,23.1577554 141.909782,24.0929518 141.909782,25.3090768 C141.909782,26.5252018 142.319545,27.4542375 143.141532,28.0974161 C143.962289,28.7405946 144.944243,29.0621839 146.086165,29.0621839 L146.265821,29.0621839 Z" id="Fill-55" fill="#0072CE" mask="url(#mask-6)"></path>
                <path d="M161.825617,8.326575 C162.421188,8.326575 162.925701,8.11218214 163.344078,7.68339643 C163.758763,7.25461071 163.969182,6.73587857 163.969182,6.12843214 C163.969182,5.52098571 163.771068,5.03798571 163.378532,4.68066429 C162.985997,4.32211071 162.486406,4.14221786 161.87976,4.14221786 C161.271883,4.14221786 160.76614,4.35784286 160.361299,4.78786071 C159.956458,5.21664643 159.754653,5.72921786 159.754653,6.32434286 C159.754653,6.9207 159.951536,7.4037 160.344071,7.77334286 C160.737838,8.14298571 161.230045,8.326575 161.825617,8.326575" id="Fill-56" fill="#0072CE" mask="url(#mask-6)"></path>
                <path d="M163.646663,26.9723464 C163.432552,26.8170964 163.325497,26.5238464 163.325497,26.0950607 L163.325497,13.1181321 C163.325497,12.8556857 163.289812,12.694275 163.217211,12.6351321 C163.147072,12.5747571 162.956341,12.5451857 162.64625,12.5451857 L160.469461,13.4039893 C160.04001,13.5703286 159.051903,13.8438643 157.503909,14.2258286 L157.826306,15.2632929 C157.993656,15.23865 158.218841,15.2263286 158.505552,15.2263286 C159.694234,15.2263286 160.289806,15.8226857 160.289806,17.0141679 L160.289806,26.0950607 C160.289806,26.5965429 160.176598,26.9008821 159.951413,27.0080786 C159.723767,27.1140429 159.040828,27.2163107 157.897676,27.3111857 L158.183156,28.7404714 L162.039604,28.633275 L165.539202,28.7404714 L165.216806,27.3111857 C164.384974,27.2397214 163.862004,27.1263643 163.646663,26.9723464" id="Fill-57" fill="#0072CE" mask="url(#mask-6)"></path>
                <path d="M177.385536,12.8316589 C176.004893,12.8316589 174.613175,13.6658196 173.207922,15.3341411 C173.088562,13.5709446 173.017192,12.6653196 172.995042,12.6172661 C172.923672,12.5692125 172.731711,12.5458018 172.422851,12.5458018 C172.328101,12.5938554 171.887575,12.8193375 171.102503,13.2247125 C170.317432,13.6288554 169.090604,14.0354625 167.424481,14.4408375 L167.746877,15.4758375 L168.280922,15.4413375 C168.947864,15.4413375 169.435149,15.6089089 169.74524,15.9403554 C170.054101,16.2767304 170.210377,16.8718554 170.210377,17.7306589 L170.210377,26.0956768 C170.210377,26.5959268 170.095938,26.9002661 169.870753,27.0074625 C169.644338,27.1146589 168.958938,27.2169268 167.818247,27.3105696 L168.102497,28.7410875 L172.173055,28.6338911 L176.316214,28.7410875 L175.993818,27.3105696 C174.875276,27.3105696 174.135734,27.2169268 173.778883,27.0259446 C173.423263,26.8349625 173.244838,26.5244625 173.244838,26.0956768 L173.244838,18.5512661 C173.244838,17.5988196 173.423263,16.8595339 173.778883,16.3358732 C174.135734,15.8109804 174.57626,15.5485339 175.101692,15.5485339 L175.314571,15.5485339 L178.171838,16.5859982 C178.218597,16.5859982 178.374873,16.4073375 178.636974,16.0500161 C179.468805,14.9768196 179.884721,14.1783911 179.884721,13.6534982 C179.59924,13.1064268 178.766179,12.8316589 177.385536,12.8316589" id="Fill-58" fill="#0072CE" mask="url(#mask-6)"></path>
                <path d="M87.4200416,39.9315321 C87.7412071,39.800925 88.5816519,39.6641571 89.9376844,39.5199964 L89.6522039,37.9477821 L85.2604799,38.0549786 L80.975811,37.9477821 L81.2969766,39.5199964 C82.2481682,39.6161036 82.8855773,39.7590321 83.2067429,39.9500143 C83.5279084,40.1397643 83.6891065,40.4625857 83.6891065,40.9147821 L83.6891065,49.5668893 L70.1213987,49.5668893 L70.1213987,40.9147821 C70.1213987,40.3898893 70.264139,40.0621393 70.5496195,39.9315321 C70.8351,39.800925 71.6447818,39.6641571 72.9774344,39.5199964 L72.6919539,37.9477821 L68.4072851,38.0549786 L64.2296714,37.9477821 L64.550837,39.5199964 C65.5032591,39.6161036 66.128363,39.7590321 66.4261487,39.9500143 C66.7227039,40.1397643 66.8715968,40.4625857 66.8715968,40.9147821 L66.8715968,60.57855 C66.8715968,61.1034429 66.7227039,61.4311929 66.4261487,61.5618 C66.128363,61.6924071 65.3125286,61.829175 63.979876,61.9733357 L64.2653565,63.54555 L68.6570805,63.4395857 L72.8346942,63.54555 L72.5135286,61.9733357 C71.5377266,61.8784607 70.8941649,61.7404607 70.5853045,61.5618 C70.2764442,61.3831393 70.1213987,61.0553893 70.1213987,60.57855 L70.1213987,51.5333893 L83.6891065,51.5333893 L83.6891065,60.6857464 C83.6891065,61.0430679 83.5882039,61.3005857 83.3863987,61.4546036 C83.183363,61.6098536 82.2961584,61.7811214 80.7260156,61.9733357 L81.0114961,63.54555 L85.4745903,63.4395857 L89.687889,63.54555 L89.3654929,61.9733357 C88.3896909,61.8784607 87.7412071,61.7404607 87.4200416,61.5618 C87.098876,61.3831393 86.9389084,61.0553893 86.9389084,60.57855 L86.9389084,40.9147821 C86.9389084,40.3898893 87.098876,40.0621393 87.4200416,39.9315321" id="Fill-59" fill="#0072CE" mask="url(#mask-6)"></path>
                <path d="M95.9994695,50.2639125 C96.666411,49.5135375 97.5351578,49.1377339 98.6069403,49.1377339 C100.629914,49.1377339 101.641401,50.4487339 101.641401,53.0707339 L94.7861773,53.0707339 C94.9289175,51.9507161 95.3325279,51.0142875 95.9994695,50.2639125 Z M105.033944,54.7526089 C105.153304,54.7526089 105.212369,54.6207696 105.212369,54.3570911 C105.212369,52.2378054 104.652482,50.5855018 103.53394,49.4051089 C102.414168,48.2259482 100.87971,47.6357518 98.9281058,47.6357518 C96.9752714,47.6357518 95.2377779,48.3688768 93.7156253,49.8351268 C92.1910117,51.3013768 91.4293201,53.2678768 91.4293201,55.7346268 C91.4293201,58.2001446 92.1011838,60.1728054 93.4473721,61.6513768 C94.7910994,63.1299482 96.6368786,63.8667696 98.9810182,63.8667696 C101.326388,63.8667696 103.3912,62.9020018 105.175453,60.9712339 L104.390382,60.0779304 C104.320242,60.0064661 104.259947,59.9707339 104.211956,59.9707339 C104.163966,59.9707339 104.104901,60.0064661 104.033531,60.0779304 C102.986359,61.1264839 101.653706,61.6513768 100.034343,61.6513768 C98.4162097,61.6513768 97.1192422,61.0143589 96.1422097,59.7378589 C95.1664078,58.4625911 94.6791221,56.9556804 94.6791221,55.2171268 L94.6791221,54.7526089 L105.033944,54.7526089 Z" id="Fill-60" fill="#0072CE" mask="url(#mask-6)"></path>
                <path d="M115.947913,60.6505071 C115.353572,61.460025 114.44914,61.8654 113.234618,61.8654 C112.567676,61.8654 112.00779,61.6929 111.556189,61.3466679 C111.104588,61.0016679 110.853562,60.459525 110.806803,59.7202393 C110.806803,58.9107214 111.151348,58.2847929 111.8429,57.8436857 C112.531991,57.4025786 113.900329,57.0033643 115.947913,56.6460429 L115.947913,60.6505071 Z M121.232994,61.6510071 L120.483608,61.6510071 C120.030777,61.6510071 119.655468,61.5450429 119.358913,61.3281857 C119.061127,61.115025 118.912234,60.6258643 118.912234,59.8631679 L118.912234,52.714275 C118.912234,49.3295786 117.412231,47.6353821 114.413455,47.6353821 C113.650533,47.6353821 112.592286,47.8867393 111.235023,48.3869893 C109.87776,48.8872393 109.021319,49.3776321 108.664468,49.8532393 C108.284238,50.282025 108.093507,50.8303286 108.093507,51.4969179 C108.093507,52.1647393 108.188257,52.5947571 108.378988,52.7845071 C108.568488,52.8325607 108.765371,52.8559714 108.968406,52.8559714 C109.170212,52.8559714 109.587358,52.7968286 110.217384,52.6773107 C110.84864,52.5577929 111.163653,52.4395071 111.163653,52.3187571 L111.163653,49.8889714 C111.757994,49.5550607 112.389251,49.3874893 113.056192,49.3874893 C114.984416,49.3874893 115.947913,50.6738464 115.947913,53.249025 L115.947913,55.3941857 C112.615666,56.0139536 110.383504,56.6522036 109.253887,57.3064714 C108.12304,57.9619714 107.558231,58.8984 107.558231,60.1132929 C107.558231,61.3281857 107.967994,62.2584536 108.789981,62.9016321 C109.610738,63.547275 110.592692,63.8676321 111.734614,63.8676321 L111.91427,63.8676321 C112.722721,63.8195786 113.526251,63.5571321 114.323627,63.081525 C115.121004,62.6046857 115.721497,62.0797929 116.127569,61.5080786 C116.221088,62.3902929 116.363829,63.0039 116.55579,63.3489 C116.74529,63.6939 117.07876,63.8676321 117.554971,63.8676321 C118.029952,63.8676321 118.774416,63.7185429 119.787134,63.4203643 C120.798621,63.1234179 121.447105,62.9016321 121.732585,62.7587036 C121.661215,62.615775 121.57754,62.2350429 121.48279,61.615275 C121.434799,61.6386857 121.351124,61.6510071 121.232994,61.6510071 Z" id="Fill-61" fill="#0072CE" mask="url(#mask-6)"></path>
                <path d="M129.081617,61.7768089 C128.842896,61.6215589 128.724766,61.3295411 128.724766,60.8995232 L128.724766,36.9466661 C128.724766,36.4920054 128.509425,36.2665232 128.081204,36.2665232 C126.463071,36.9823982 124.736652,37.6132554 122.903178,38.1615589 L123.225574,39.2335232 C123.391694,39.2113446 123.706707,39.1990232 124.171844,39.1990232 C124.63575,39.1990232 125.004906,39.3419518 125.278081,39.6265768 C125.551256,39.9136661 125.689074,40.4484161 125.689074,41.2369875 L125.689074,60.8995232 C125.689074,61.4010054 125.575867,61.7041125 125.349451,61.8125411 C125.124266,61.9197375 124.440097,62.0220054 123.296944,62.1144161 L123.582425,63.5461661 L127.438873,63.4389696 L131.009841,63.5461661 L130.688675,62.1144161 C129.854383,62.0441839 129.319107,61.9320589 129.081617,61.7768089" id="Fill-62" fill="#0072CE" mask="url(#mask-6)"></path>
                <path d="M140.791978,61.3652732 C140.196407,61.7460054 139.547923,61.9369875 138.846527,61.9369875 C138.1439,61.9369875 137.590167,61.6338804 137.185326,61.0252018 C136.780485,60.4165232 136.57868,59.5417018 136.57868,58.3982732 L136.614365,50.4965411 L136.614365,50.4250768 L136.614365,50.3893446 C136.614365,50.0320232 136.732494,49.8533625 136.971215,49.8533625 L141.434309,49.8533625 L141.113144,48.0655232 L137.042585,48.0655232 C136.732494,48.0655232 136.57868,47.9102732 136.57868,47.6010054 L136.435939,44.7399696 C136.435939,44.5982732 136.352264,44.5255768 136.186144,44.5255768 L135.793608,44.5255768 C135.198037,45.6936482 134.584007,46.6239161 133.953981,47.3151482 C133.323956,48.0063804 132.508121,48.5053982 131.508939,48.8146661 L131.830105,49.8533625 L133.080313,49.8533625 C133.221822,49.8533625 133.33503,49.8878625 133.418706,49.9605589 C133.50115,50.0320232 133.544219,50.2106839 133.544219,50.4965411 L133.544219,59.4702375 C133.544219,60.6629518 133.882611,61.6930232 134.561858,62.5629161 C135.239874,63.4340411 136.274741,63.8677554 137.667689,63.8677554 C139.059407,63.8677554 140.411748,63.3798268 141.71979,62.4015054 L141.077459,61.4367375 C140.981478,61.3406304 140.886728,61.3184518 140.791978,61.3652732" id="Fill-63" fill="#0072CE" mask="url(#mask-6)"></path>
                <path d="M160.097598,61.7768089 C159.883488,61.6215589 159.776433,61.3295411 159.776433,60.8995232 L159.776433,52.9645232 C159.776433,49.4122554 158.085699,47.6355054 154.705462,47.6355054 C153.419569,47.6355054 152.170592,47.9694161 150.956069,48.6372375 C150.503238,48.8750411 149.860907,49.2323625 149.029076,49.7092018 L149.029076,36.9478982 C149.004465,36.6595768 148.950322,36.4759875 148.867878,36.3922018 C148.784202,36.3084161 148.599624,36.2665232 148.314144,36.2665232 C146.76615,37.0550946 145.064342,37.6847196 143.208719,38.1615589 L143.529884,39.1990232 L144.06516,39.1620589 C144.730871,39.1620589 145.219387,39.3296304 145.529478,39.6647732 C145.838339,39.9962196 145.993384,40.5938089 145.993384,41.4501482 L145.993384,60.8995232 C145.993384,61.3997732 145.880176,61.7041125 145.653761,61.8113089 C145.427345,61.9185054 144.744407,62.0207732 143.601254,62.1156482 L143.886735,63.5473982 L147.743183,63.4402018 L151.24155,63.5473982 L150.920384,62.1156482 C150.087322,62.0441839 149.564352,61.9320589 149.349011,61.7768089 C149.1349,61.6215589 149.029076,61.3295411 149.029076,60.8995232 L149.029076,50.9622911 C150.313738,50.3425232 151.616858,50.0307911 152.937206,50.0307911 C154.258783,50.0307911 155.223511,50.3425232 155.830157,50.9622911 C156.436803,51.5820589 156.740741,52.6552554 156.740741,54.1781839 L156.740741,60.8995232 C156.740741,61.3997732 156.627533,61.7041125 156.402348,61.8113089 C156.174702,61.9185054 155.491764,62.0207732 154.347381,62.1156482 L154.634092,63.5473982 L158.489309,63.4402018 L161.988907,63.5473982 L161.667741,62.1156482 C160.833449,62.0441839 160.310478,61.9320589 160.097598,61.7768089" id="Fill-64" fill="#0072CE" mask="url(#mask-6)"></path>
                <path d="M27.6046127,23.6753786 C26.0049373,23.6753786 24.7030477,22.3717714 24.7030477,20.7687536 C24.7030477,19.1669679 26.0049373,17.8633607 27.6046127,17.8633607 C29.204288,17.8633607 30.5061776,19.1669679 30.5061776,20.7687536 C30.5061776,22.3717714 29.204288,23.6753786 27.6046127,23.6753786 M31.4426029,20.7687536 C31.4426029,18.6494679 29.7211062,16.9257 27.6046127,16.9257 C25.4881192,16.9257 23.7666224,18.6494679 23.7666224,20.7687536 C23.7666224,22.8880393 25.4881192,24.6118071 27.6046127,24.6118071 C29.7211062,24.6118071 31.4426029,22.8880393 31.4426029,20.7687536" id="Fill-65" fill="#0072CE" mask="url(#mask-6)"></path>
                <path d="M22.4440601,28.7026446 L22.4440601,28.8899304 C21.9407776,28.7026446 21.3858133,28.5979125 20.8025471,28.5979125 L19.5523393,28.5979125 L19.5523393,29.5368054 L20.8025471,29.5368054 C21.2701445,29.5368054 21.7155925,29.6119661 22.1105893,29.7573589 C22.2225666,29.7992518 22.3382354,29.7943232 22.4440601,29.7598232 L22.4440601,33.6423054 C22.4440601,34.8190018 23.2709692,35.8010196 24.364901,36.0228054 L24.364901,39.7525018 C24.364901,40.0112518 24.5753198,40.2207161 24.8337289,40.2207161 C25.092138,40.2207161 25.3013263,40.0112518 25.3013263,39.7525018 L25.3013263,31.8125732 C25.3013263,31.5525911 25.092138,31.3431268 24.8337289,31.3431268 C24.5753198,31.3431268 24.364901,31.5525911 24.364901,31.8125732 L24.364901,35.0395554 C23.7902484,34.8411804 23.3804854,34.3076625 23.3804854,33.6423054 L23.3804854,28.7026446 C23.3804854,26.9480732 24.874336,26.1619661 26.354651,26.1619661 L27.6036282,26.1619661 L27.6036282,25.2267696 L26.354651,25.2267696 C24.052349,25.2267696 22.4440601,26.6548232 22.4440601,28.7026446" id="Fill-66" fill="#0072CE" mask="url(#mask-6)"></path>
                <path d="M31.8278786,28.7026446 L31.8278786,33.6423054 C31.8278786,34.3076625 31.4205766,34.8399482 30.8483851,35.0395554 L30.8483851,31.8125732 C30.8483851,31.5525911 30.6391968,31.3431268 30.3807877,31.3431268 C30.1223786,31.3431268 29.9131903,31.5525911 29.9131903,31.8125732 L29.9131903,39.7512696 C29.9131903,40.0100196 30.1223786,40.2194839 30.3807877,40.2194839 C30.6391968,40.2194839 30.8483851,40.0100196 30.8483851,39.7512696 L30.8483851,36.0228054 C31.9398558,35.8010196 32.7655344,34.8190018 32.7655344,33.6423054 L32.7655344,29.7598232 C32.8713591,29.7943232 32.9870279,29.7992518 33.0977747,29.7573589 C33.4940019,29.6119661 33.9382195,29.5368054 34.4070474,29.5368054 L35.6560247,29.5368054 L35.6560247,28.5979125 L34.4070474,28.5979125 C33.8237812,28.5979125 33.2675864,28.7026446 32.7655344,28.8899304 L32.7655344,28.7026446 C32.7655344,26.6548232 31.1560149,25.2267696 28.853713,25.2267696 L27.6047357,25.2267696 L27.6047357,26.1619661 L28.853713,26.1619661 C30.3340279,26.1619661 31.8278786,26.9480732 31.8278786,28.7026446" id="Fill-67" fill="#0072CE" mask="url(#mask-6)"></path>
                <path d="M35.6570091,21.236475 C37.2566844,21.236475 38.558574,22.5413143 38.558574,24.1418679 C38.558574,25.7448857 37.2566844,27.0484929 35.6570091,27.0484929 C34.0573338,27.0484929 32.7554442,25.7448857 32.7554442,24.1418679 C32.7554442,22.5413143 34.0573338,21.236475 35.6570091,21.236475 M35.6570091,27.9873857 C37.7735026,27.9873857 39.4949994,26.2623857 39.4949994,24.1418679 C39.4949994,22.0250464 37.7735026,20.2988143 35.6570091,20.2988143 C33.5405156,20.2988143 31.8190188,22.0250464 31.8190188,24.1418679 C31.8190188,26.2623857 33.5405156,27.9873857 35.6570091,27.9873857" id="Fill-68" fill="#0072CE" mask="url(#mask-6)"></path>
                <path d="M19.5527084,27.0481232 C17.9518026,27.0481232 16.6511435,25.7445161 16.6511435,24.1427304 C16.6511435,22.5409446 17.9518026,21.2361054 19.5527084,21.2361054 C21.1523838,21.2361054 22.4542734,22.5409446 22.4542734,24.1427304 C22.4542734,25.7445161 21.1523838,27.0481232 19.5527084,27.0481232 M19.5527084,20.2984446 C17.4362149,20.2984446 15.7134877,22.0246768 15.7134877,24.1427304 C15.7134877,26.2620161 17.4362149,27.9870161 19.5527084,27.9870161 C21.6692019,27.9870161 23.3906987,26.2620161 23.3906987,24.1427304 C23.3906987,22.0246768 21.6692019,20.2984446 19.5527084,20.2984446" id="Fill-69" fill="#0072CE" mask="url(#mask-6)"></path>
                <path d="M26.7652753,62.1835393 C26.6385318,59.0255571 26.6348403,51.9542893 26.6348403,51.882825 C26.6348403,50.6728607 26.4601065,49.6218429 26.1032558,48.6693964 C25.6910318,47.5826464 24.9502591,46.4552357 23.5671552,44.4000214 C20.7578792,40.2255214 17.5400708,37.0010036 15.8087299,35.2649143 C15.6659896,35.1219857 15.503561,34.9630393 15.3288273,34.7954679 L15.3288273,32.0761286 C15.3288273,30.3227893 16.8214474,29.5366821 18.3029929,29.5366821 L19.5519701,29.5366821 L19.5519701,28.5977893 L18.3029929,28.5977893 C15.9994604,28.5977893 14.3924019,30.0283071 14.3924019,32.0761286 L14.3924019,33.9268071 C14.1672169,33.7247357 13.9309571,33.5140393 13.6762396,33.2897893 C13.0154506,32.7057536 12.2574506,32.0551821 11.5400578,31.4526643 C11.1364474,31.1076643 10.7992851,30.8846464 10.6208597,30.7663607 C10.5334929,30.7059857 10.4707364,30.6628607 10.4350513,30.6357536 L10.415363,30.6234321 C10.1778727,30.4484679 9.55153831,29.992575 9.42479481,29.1042 C9.36942143,28.6754143 9.44079156,28.2429321 9.63521364,27.7981286 C9.85670714,27.2941821 10.2492429,26.7261643 10.8743468,26.0041286 C11.7861617,24.9568071 13.4621292,22.7746821 15.0839539,20.6677179 C16.3353922,19.0375929 17.6311292,17.3507893 18.6659961,16.0693607 C21.0187494,13.1368607 22.3624766,11.4907179 22.794389,10.9719857 C22.8817558,10.8684857 23.0011162,10.7317179 23.1401649,10.569075 C23.6311422,10.0022893 24.3719149,9.14471786 24.9933273,8.18118214 C25.8030091,6.93918214 26.3173662,5.97811071 26.5905416,4.75705714 C26.8489506,3.59391429 26.58685,1.60646786 26.2939864,1.12962857 C26.0921812,0.959592857 25.8657656,0.856092857 25.6836487,0.856092857 C25.6048955,0.856092857 25.4732299,0.875807143 25.291113,1.029825 C24.3879117,1.79621786 17.5314571,9.25191429 15.6376877,11.3588786 C14.6951097,12.4111286 12.4014214,14.7472714 10.3759864,16.8061821 C9.16269416,18.0444857 8.01831104,19.211325 7.36859675,19.8939321 C5.66432727,21.6793071 1.88417143,26.1273429 1.15816494,27.3582536 C1.11509675,27.4334143 1.06341494,27.5159679 1.01173312,27.6046821 C0.192207143,28.9797536 -0.739296104,30.5396464 0.924366234,32.8967357 C1.91616494,34.3013786 2.63232727,35.2143964 3.3226487,36.0953786 C4.27753182,37.3164321 5.2681,38.583075 6.96006429,41.0941821 C9.91208052,45.4904679 11.7701649,48.4389857 12.6426032,53.4230036 C13.0905123,55.9895571 13.2209474,59.0489679 13.2492494,61.163325 C13.2640156,62.2118786 13.2640156,63.0300214 13.2566325,63.6682714 L13.6011779,63.6682714 C14.0958468,63.6682714 14.3579474,63.6633429 14.5080708,63.6633429 L14.6520416,63.6633429 L16.1422006,63.6596464 C18.435889,63.6522536 21.1184214,63.6485571 22.8657591,63.6485571 C23.2582948,63.6485571 23.6545221,63.6399321 24.0347526,63.6325393 C24.4076,63.6276107 24.7718338,63.6202179 25.1089961,63.6202179 C25.9445188,63.6239143 26.5437818,63.6276107 26.8366455,63.6325393 C26.8292623,63.405825 26.8132656,63.1433786 26.8009604,62.9376107 C26.7886552,62.6924143 26.773889,62.4373607 26.7652753,62.1835393" id="Fill-70" fill="#0072CE" mask="url(#mask-6)"></path>
                <path d="M54.0488455,27.4404375 C53.3671377,26.2859196 49.7137253,21.9376875 47.8433357,19.9773482 C47.1886994,19.2959732 46.0393942,18.1242054 44.8224104,16.8871339 C42.8018974,14.8282232 40.5119006,12.4933125 39.5680922,11.4472232 C37.6066442,9.26386607 30.8154071,1.87963393 29.919589,1.11816964 C29.7337805,0.959223214 29.607037,0.943205357 29.5233617,0.943205357 C29.3412448,0.943205357 29.1148292,1.04177679 28.913024,1.21304464 C28.6201604,1.68865179 28.3580597,3.67733036 28.6164688,4.84416964 C28.8896442,6.06152679 29.4040013,7.02136607 30.208761,8.26459821 C30.838787,9.23675893 31.5844818,10.0967946 32.0791506,10.6648125 C32.2145078,10.8188304 32.3289461,10.9543661 32.416313,11.0578661 C32.8519169,11.5802946 34.1907221,13.2325982 36.5410143,16.1515446 C37.5795727,17.4379018 38.8753097,19.1271696 40.1316701,20.7634554 C41.7473422,22.8654911 43.4245403,25.0451518 44.3314331,26.0912411 C44.954076,26.8021875 45.3466117,27.3689732 45.5681052,27.8704554 C45.7699104,28.3411339 45.8412805,28.7662232 45.7822156,29.1826875 C45.6591636,30.0710625 45.0365208,30.5281875 44.8027221,30.6994554 L44.7719591,30.7228661 C44.7399656,30.7475089 44.6759786,30.7906339 44.5861506,30.8510089 C44.4077253,30.9680625 44.0742545,31.1947768 43.6706442,31.5360804 C43.1513649,31.9734911 42.3589104,32.6437768 41.5344623,33.3719732 C41.2822058,33.5962232 41.0447156,33.8093839 40.8170695,34.0151518 L40.8170695,32.0769911 C40.8170695,30.0291696 39.2087805,28.5974196 36.9064786,28.5974196 L35.6575013,28.5974196 L35.6575013,29.5363125 L36.9064786,29.5363125 C38.3867935,29.5363125 39.8806442,30.3224196 39.8806442,32.0769911 L39.8806442,34.8813482 C39.7046799,35.0501518 39.5410208,35.2090982 39.3982805,35.3520268 C37.7936831,36.9575089 34.4614364,40.2941518 31.6398552,44.4871339 C30.2998195,46.4782768 29.5184396,47.6611339 29.1037545,48.7614375 C28.7469039,49.7089554 28.5721701,50.7599732 28.5721701,51.9699375 C28.5721701,52.0377054 28.5684786,59.1336161 28.4454266,62.2731161 C28.4331214,62.5220089 28.4220468,62.7709018 28.40605,63.0136339 C28.3937448,63.2230982 28.3777481,63.4892411 28.3703649,63.7196518 C28.6669201,63.7147232 29.2661831,63.7085625 30.0980143,63.7085625 C30.4351766,63.7085625 30.7994104,63.7110268 31.1722578,63.7196518 C31.5524883,63.7233482 31.9487156,63.7319732 32.3449429,63.7319732 C34.2079494,63.7319732 37.1439688,63.7393661 39.5336377,63.7467589 L40.5598909,63.7529196 L41.9540695,63.7529196 C41.9429948,63.1122054 41.9429948,62.2989911 41.957761,61.2516696 C41.986063,59.1373125 42.1164981,56.0766696 42.5644071,53.5101161 C43.440537,48.5224018 45.2949299,45.5738839 48.2506377,41.1812946 C49.9389104,38.6652589 50.9294786,37.4035446 51.8843617,36.1837232 C52.5746831,35.3015089 53.2908455,34.3897232 54.2863357,32.9838482 C55.9463065,30.6267589 55.0197253,29.0680982 54.1952773,27.6905625 C54.1435955,27.6030804 54.0956052,27.5192946 54.0488455,27.4404375" id="Fill-71" fill="#0072CE" mask="url(#mask-6)"></path>
            </g>
        </g>
    </g>
</svg>